<svg id="Camada_1" data-name="Camada 1" xmlns="http://www.w3.org/2000/svg" viewBox="0 0 58.83 12.7"><defs><style>.cls-1{fill:#048abf;}.cls-2{fill:#fff;}</style></defs><rect class="cls-1" width="58.83" height="12.7" rx="1.28"/><path class="cls-2" d="M31.77,24.13a.81.81,0,0,0,.35-.07,1,1,0,0,0,.29-.2.81.81,0,0,0,.19-.29.85.85,0,0,0,.08-.35H33a1.21,1.21,0,0,1-.35.83,1.18,1.18,0,0,1-.37.26,1.14,1.14,0,0,1-.46.09,1.18,1.18,0,0,1-.46-.09,1.31,1.31,0,0,1-.63-.63,1.22,1.22,0,0,1-.09-.46V20a1.22,1.22,0,0,1,.09-.46,1.08,1.08,0,0,1,.26-.37,1.23,1.23,0,0,1,.37-.26,1.18,1.18,0,0,1,.46-.09,1.14,1.14,0,0,1,.46.09,1.34,1.34,0,0,1,.37.25,1.15,1.15,0,0,1,.25.37A1.07,1.07,0,0,1,33,20h-.27a.94.94,0,0,0-.27-.64,1,1,0,0,0-.29-.2.81.81,0,0,0-.35-.07.84.84,0,0,0-.35.07.88.88,0,0,0-.29.2,1,1,0,0,0-.2.29.78.78,0,0,0-.07.35v3.23a.84.84,0,0,0,.07.35,1,1,0,0,0,.2.29.88.88,0,0,0,.29.2A.84.84,0,0,0,31.77,24.13Z" transform="translate(-8.85 -16)"/><path class="cls-2" d="M33.52,24.36V18.51h.27v5.85Z" transform="translate(-8.85 -16)"/><path class="cls-2" d="M34.64,20.27h.27v4h-.27V20.55h-.27v-.28Zm.06-.93-.14-.06-.06-.14.06-.15.14-.06.14.06.07.15-.07.14Z" transform="translate(-8.85 -16)"/><path class="cls-2" d="M36.65,24.13a.92.92,0,0,0,.33-.06.93.93,0,0,0,.26-.18.78.78,0,0,0,.17-.26.71.71,0,0,0,.07-.32h.27a1.07,1.07,0,0,1-.09.43,1,1,0,0,1-.23.34,1,1,0,0,1-.78.32,1.26,1.26,0,0,1-.43-.08,1.16,1.16,0,0,1-.34-.24.89.89,0,0,1-.23-.34,1.07,1.07,0,0,1-.09-.43V21.39a1,1,0,0,1,.09-.43,1,1,0,0,1,.23-.35,1.36,1.36,0,0,1,.34-.23,1.06,1.06,0,0,1,.43-.08,1,1,0,0,1,.43.08,1.41,1.41,0,0,1,.35.23,1.18,1.18,0,0,1,.23.35,1,1,0,0,1,.09.43h-.27a.71.71,0,0,0-.07-.32.78.78,0,0,0-.17-.26.76.76,0,0,0-.26-.18.92.92,0,0,0-.33-.06.87.87,0,0,0-.32.06.68.68,0,0,0-.26.18,1,1,0,0,0-.18.26.87.87,0,0,0-.06.32v1.92a.87.87,0,0,0,.06.32,1,1,0,0,0,.18.26.81.81,0,0,0,.26.18A.87.87,0,0,0,36.65,24.13Z" transform="translate(-8.85 -16)"/><path class="cls-2" d="M39.4,18.84a1,1,0,0,1,.45.1,1.15,1.15,0,0,1,.37.25,1.31,1.31,0,0,1,.24.37,1.13,1.13,0,0,1,.09.45v1.13a1.08,1.08,0,0,1-.08.44,1.41,1.41,0,0,1-.24.36,1.48,1.48,0,0,1-.35.25,1.24,1.24,0,0,1-.43.11h-.86v2.06h-.27V18.84H39.4ZM40.29,20a.81.81,0,0,0-.08-.34,1,1,0,0,0-.19-.29,1.12,1.12,0,0,0-.29-.19.85.85,0,0,0-.35-.08h-.79V22h.81a.84.84,0,0,0,.35-.07,1.07,1.07,0,0,0,.28-.19,1.12,1.12,0,0,0,.19-.29.94.94,0,0,0,.07-.34Z" transform="translate(-8.85 -16)"/><path class="cls-2" d="M42.12,20.3a1,1,0,0,1,.42.08,1.24,1.24,0,0,1,.32.23,1.13,1.13,0,0,1,.21.35,1.22,1.22,0,0,1,.08.43v3h-.27V24a1.26,1.26,0,0,1-.37.27,1,1,0,0,1-.45.1,1.18,1.18,0,0,1-.43-.08,1.09,1.09,0,0,1-.35-.24,1,1,0,0,1-.23-.34,1.07,1.07,0,0,1-.09-.43v-.23c0-.34.21-.58.62-.74l.25-.09.38-.15L42.6,22l.28-.11v-.46a.84.84,0,0,0-.21-.58.69.69,0,0,0-.55-.24.77.77,0,0,0-.58.24,1,1,0,0,0-.18.26.87.87,0,0,0-.06.32H41a1,1,0,0,1,.32-.78,1.2,1.2,0,0,1,.34-.23A1.06,1.06,0,0,1,42.12,20.3Zm.76,2v-.2l-.3.11-.36.14-.33.13-.21.08a1.14,1.14,0,0,0-.3.17.37.37,0,0,0-.15.31v.23a.71.71,0,0,0,.07.32.78.78,0,0,0,.17.26.93.93,0,0,0,.26.18.88.88,0,0,0,.33.06.87.87,0,0,0,.32-.06.81.81,0,0,0,.26-.18,1,1,0,0,0,.18-.26.87.87,0,0,0,.06-.32Z" transform="translate(-8.85 -16)"/><path class="cls-2" d="M46,20.34l-1.43,5.85h-.28l.43-1.76-1.15-4.09h.27l1,3.56.87-3.56Z" transform="translate(-8.85 -16)"/></svg>