<svg id="Camada_1" data-name="Camada 1" xmlns="http://www.w3.org/2000/svg" viewBox="0 0 12.61 11.97"><defs><style>.cls-1,.cls-2{fill:none;stroke:#fff;stroke-miterlimit:10;}.cls-2{stroke-width:0.75px;}</style></defs><path class="cls-1" d="M1.27,2.38h5a0,0,0,0,1,0,0v2a0,0,0,0,1,0,0H.5a0,0,0,0,1,0,0V3.15A.77.77,0,0,1,1.27,2.38Z"/><path class="cls-1" d="M31.71,21.68h5.8a0,0,0,0,1,0,0v2a0,0,0,0,1,0,0h-5a.77.77,0,0,1-.77-.77V21.68a0,0,0,0,1,0,0Z" transform="translate(43.82 26.05) rotate(-180)"/><path class="cls-1" d="M1.3,4.27h10a0,0,0,0,1,0,0v6.8a.4.4,0,0,1-.4.4H1.7a.4.4,0,0,1-.4-.4V4.27A0,0,0,0,1,1.3,4.27Z"/><line class="cls-1" x1="6.3" y1="3.88" x2="6.3" y2="11.87"/><circle class="cls-2" cx="5.3" cy="1.38" r="1"/><circle class="cls-2" cx="7.3" cy="1.38" r="1"/></svg>