<svg id="Camada_1" data-name="Camada 1" xmlns="http://www.w3.org/2000/svg" xmlns:xlink="http://www.w3.org/1999/xlink" viewBox="0 0 18.3 19.1"><defs><style>.cls-1{fill:url(#Gradiente_sem_nome_39);}.cls-2{fill:#fff;}</style><linearGradient id="Gradiente_sem_nome_39" y1="9.55" x2="18.3" y2="9.55" gradientUnits="userSpaceOnUse"><stop offset="0" stop-color="#29abe2"/><stop offset="0.06" stop-color="#189cd2"/><stop offset="0.13" stop-color="#0d92c7"/><stop offset="0.23" stop-color="#068cc1"/><stop offset="0.51" stop-color="#048abf"/><stop offset="0.78" stop-color="#068cc1"/><stop offset="0.88" stop-color="#0d92c7"/><stop offset="0.95" stop-color="#189cd2"/><stop offset="1" stop-color="#29abe2"/></linearGradient></defs><rect class="cls-1" width="18.3" height="19.1" rx="4.04"/><path class="cls-2" d="M26.5,28.54a1.24,1.24,0,0,0,.47-.1,1.42,1.42,0,0,0,.38-.26,1.33,1.33,0,0,0,.26-.39,1.19,1.19,0,0,0,.09-.47h.36a1.63,1.63,0,0,1-.12.62,1.72,1.72,0,0,1-.34.49,1.51,1.51,0,0,1-1.71.34,1.58,1.58,0,0,1-.5-.34,1.54,1.54,0,0,1-.34-.49,1.63,1.63,0,0,1-.12-.62V23a1.63,1.63,0,0,1,.12-.62,1.54,1.54,0,0,1,.34-.49,1.43,1.43,0,0,1,.5-.34,1.55,1.55,0,0,1,.61-.13,1.39,1.39,0,0,1,.61.13,1.51,1.51,0,0,1,.49.33,1.72,1.72,0,0,1,.34.49,1.63,1.63,0,0,1,.12.62H27.7a1.19,1.19,0,0,0-.09-.47,1.25,1.25,0,0,0-.64-.64,1.15,1.15,0,0,0-.94,0,1.33,1.33,0,0,0-.39.26,1.42,1.42,0,0,0-.26.38,1.24,1.24,0,0,0-.1.47v4.29a1.2,1.2,0,0,0,.1.47,1.2,1.2,0,0,0,.65.65A1.24,1.24,0,0,0,26.5,28.54Z" transform="translate(-20.91 -16)"/><path class="cls-2" d="M28.82,28.84V21.06h.36v7.78Z" transform="translate(-20.91 -16)"/><path class="cls-2" d="M30.31,23.41h.36v5.36h-.36v-5H30v-.37Zm.08-1.24-.19-.08-.08-.19.08-.2.19-.07.19.07.09.2-.09.19Z" transform="translate(-20.91 -16)"/><path class="cls-2" d="M33,28.54a1.07,1.07,0,0,0,.43-.09,1,1,0,0,0,.34-.23,1,1,0,0,0,.32-.78h.36a1.56,1.56,0,0,1-.11.57,1.49,1.49,0,0,1-.31.46,1.44,1.44,0,0,1-.46.31,1.39,1.39,0,0,1-.57.12,1.35,1.35,0,0,1-.57-.12,1.45,1.45,0,0,1-.77-.77,1.39,1.39,0,0,1-.12-.57V24.89a1.39,1.39,0,0,1,.12-.57,1.44,1.44,0,0,1,.31-.46,1.49,1.49,0,0,1,.46-.31,1.52,1.52,0,0,1,.57-.11,1.56,1.56,0,0,1,.57.11,1.45,1.45,0,0,1,.77.77,1.56,1.56,0,0,1,.11.57h-.36a1.26,1.26,0,0,0-.08-.43,1.22,1.22,0,0,0-.58-.58A1.26,1.26,0,0,0,33,23.8a1,1,0,0,0-.78.32,1,1,0,0,0-.23.34,1.07,1.07,0,0,0-.09.43v2.55a1,1,0,0,0,.09.43,1,1,0,0,0,.58.58A1,1,0,0,0,33,28.54Z" transform="translate(-20.91 -16)"/></svg>