<svg id="Camada_1" data-name="Camada 1" xmlns="http://www.w3.org/2000/svg" viewBox="0 0 73.01 73.01"><defs><style>.cls-1{fill:#00b269;}.cls-2{fill:#fff;}</style></defs><circle class="cls-1" cx="36.5" cy="36.5" r="36.5"/><path class="cls-2" d="M46.29,51.79A8.83,8.83,0,0,1,41.8,54a1.07,1.07,0,0,0-.89,1.2c.22,1.39.49,3.78-.19,4.45s-2.74.63-3.25,0,0-3.68,0-3.68a1.24,1.24,0,0,0-.83-1.17s-2.94-1.05-3.93-1.37-3.59-1.08-3.93-2.14c-.25-.78,1-2.59,1.81-2.72,1.37-.22,2.8,1.43,3.73,1.91a10.23,10.23,0,0,0,3.93.64,7.85,7.85,0,0,0,4.51-1.07,4.19,4.19,0,0,0,1-5.35,5,5,0,0,0-1.81-1.51,26.66,26.66,0,0,0-3.61-1.5l-.7-.25a27.61,27.61,0,0,1-4.2-1.79,7.47,7.47,0,0,1-2.59-2.33,6.25,6.25,0,0,1-1-3.62,6.15,6.15,0,0,1,1-3.57,6.88,6.88,0,0,1,2.76-2.34,10.44,10.44,0,0,1,2.7-.89,1.35,1.35,0,0,0,1.13-1.3s-.67-3.43,0-4.26c.51-.63,2.68-.58,3.25,0,.77.77,0,4.34,0,4.34a1.13,1.13,0,0,0,1.07,1.13c2.46.15,5.54.24,6,2.48A3.26,3.26,0,0,1,46.08,32c-1.4.31-2.38-1.33-3.5-1.67a13.1,13.1,0,0,0-3.79-.52,6.74,6.74,0,0,0-3.63.91,3.07,3.07,0,0,0-1.44,2.8,3.18,3.18,0,0,0,.47,1.73,4.56,4.56,0,0,0,1.65,1.4,21.18,21.18,0,0,0,3.28,1.4l.7.25a35,35,0,0,1,4.41,1.79,8.52,8.52,0,0,1,2.84,2.43,6.69,6.69,0,0,1,1.19,4.1A6.91,6.91,0,0,1,46.29,51.79Z" transform="translate(-2 -4)"/></svg>