<svg id="Camada_1" data-name="Camada 1" xmlns="http://www.w3.org/2000/svg" viewBox="0 0 29.98 29.97"><defs><style>.cls-1{fill:#e6e6e6;}.cls-2{fill:#351808;}.cls-3{fill:#ff7f60;}.cls-4{fill:#013256;}.cls-5{fill:#002a4f;}.cls-6{fill:#ef6e54;}.cls-7{fill:#ba7959;}.cls-8{fill:#d4145a;}.cls-9{fill:#fff;}.cls-10{fill:#39b54a;}.cls-11{fill:#af5f46;}</style></defs><path class="cls-1" d="M46.28,49.68a15,15,0,0,1-7.57,8.82c-.35.17-.7.33-1.06.48l-.2.08-.16.06a13.42,13.42,0,0,1-1.48.48h0a1.16,1.16,0,0,1-.22.06h0s0,0,0,0h0l-.38.08a8.5,8.5,0,0,1-.88.15L34,60h-.08l-.21,0h0l-.31,0-.46,0h-.25l-.47,0h-.81l-.41,0-.27,0-.14,0-.63-.08-.42-.06-.12,0c-.42-.08-.83-.17-1.25-.28h-.06l-.71-.21-.12,0q-.42-.13-.81-.3c-.24-.09-.46-.19-.68-.29l-.32-.16-.16-.07-.15-.08-.08,0h0c-.23-.12-.47-.25-.69-.39l-.54-.34-.5-.35s0,0,0,0q-.42-.3-.81-.63c-.22-.18-.44-.37-.65-.57l-.55-.54,0,0q-.36-.36-.69-.75s0,0-.05-.06a14.81,14.81,0,0,1-1.06-1.44c-.1-.16-.2-.32-.29-.48h0a.54.54,0,0,1-.07-.13,15,15,0,1,1,27.22-2.94Z" transform="translate(-17.02 -30.11)"/><path class="cls-2" d="M32.86,36.33h0a1.54,1.54,0,0,1,2.66,1.27h0a1.55,1.55,0,0,0,1.85,1.75h0a1.54,1.54,0,0,1,1.41,2.59h0a1.54,1.54,0,0,0,.46,2.5h0a1.53,1.53,0,0,1-.38,2.92h0a1.54,1.54,0,0,0-1.09,2.3h0a1.54,1.54,0,0,1-2,2.14h0c-1-.49-4.81.45-5.51.35-1.72-.22-5.59-2.17-6.65-1.94h0a1.54,1.54,0,0,1-1.41-2.59h0a1.55,1.55,0,0,0-.47-2.5h0a1.53,1.53,0,0,1,.39-2.92h0a1.55,1.55,0,0,0,1.09-2.3h0a1.54,1.54,0,0,1,2-2.14h0a1.54,1.54,0,0,0,2.23-1.21h0a1.54,1.54,0,0,1,2.9-.55h0A1.54,1.54,0,0,0,32.86,36.33Z" transform="translate(-17.02 -30.11)"/><path class="cls-3" d="M38.71,58.5c-.35.17-.7.33-1.06.48l-.2.08-.16.06a13.42,13.42,0,0,1-1.48.48h0a1.16,1.16,0,0,1-.22.06h0s0,0,0,0h0l-.38.07a8.5,8.5,0,0,1-.88.15L34,60h-.08l-.21,0h0l-.31,0-.46,0h-.25l-.47,0h-.81l-.41,0-.27,0h-.14l-.63-.08-.42-.06-.12,0c-.42-.08-.83-.17-1.25-.28h-.06l-.71-.21-.12,0q-.42-.13-.81-.3l-.68-.3a2.3,2.3,0,0,1-.32-.15l-.16-.08-.15-.07-.08,0h0c-.23-.12-.47-.25-.69-.39l-.54-.34-.5-.35s0,0,0,0q-.42-.3-.81-.63c-.22-.18-.44-.37-.65-.57l-.55-.54,0,0q-.36-.36-.69-.75s0,0-.05-.06a14.81,14.81,0,0,1-1.06-1.44A11.1,11.1,0,0,1,22,51a11.73,11.73,0,0,1,1.53-.8h0a12.12,12.12,0,0,1,1.63-.57c.27-.06.54-.13.81-.17l.45-.07.31,0a5.44,5.44,0,0,1,.58,0,1.15,1.15,0,0,1,.26,0,6.94,6.94,0,0,1,.79,0h.09a10.83,10.83,0,0,1,2,.29c.25.06.5.13.74.21a9.93,9.93,0,0,1,1.22.47l.21.1.59.3.36.21.09,0,.49.33.48.36c.17.14.35.28.51.44A11.25,11.25,0,0,1,38.71,58.5Z" transform="translate(-17.02 -30.11)"/><path class="cls-4" d="M31.65,55.75l-1,4.26h0v0h-.12s0,0,0-.07l-.63-.08-.42-.06-.12,0c-.42-.08-.83-.17-1.25-.28h-.06l-.71-.21-.12,0q-.42-.13-.81-.3c-.24-.09-.46-.19-.68-.29l0,0a5.06,5.06,0,0,1-.46-.24h0l.91-4,.89.2,3.75.85Z" transform="translate(-17.02 -30.11)"/><path class="cls-5" d="M27.54,51.34c-.06.78-.18,1.69-.35,2.64-.05.24-.1.49-.14.72a14.29,14.29,0,0,1-1.32,4h0l0,0a5.06,5.06,0,0,1-.46-.24L25,58.35h0l-.16-.1a17.94,17.94,0,0,1,.37-4.64,22.3,22.3,0,0,1,.69-2.86,12,12,0,0,1,.49-1.33l.31,0a5.44,5.44,0,0,1,.58,0,1.15,1.15,0,0,1,.26,0A11.24,11.24,0,0,1,27.54,51.34Z" transform="translate(-17.02 -30.11)"/><path class="cls-5" d="M33.26,51.78a24.47,24.47,0,0,1-.41,3.73,17.64,17.64,0,0,1-1.36,4.55h-.14a5.27,5.27,0,0,1-.69,0h-.12s0,0,0-.07h0a16.22,16.22,0,0,1,.27-4.45c0-.13.05-.27.08-.41A23.39,23.39,0,0,1,31.66,52a7.51,7.51,0,0,1,.74-1.7l.21.1.59.3A8.05,8.05,0,0,1,33.26,51.78Z" transform="translate(-17.02 -30.11)"/><path class="cls-6" d="M23.15,55,23,56.88l-.67-.52-.54-.48Z" transform="translate(-17.02 -30.11)"/><path class="cls-6" d="M35.52,59.7a10.89,10.89,0,0,1-1.14.21l-.26,0h0l-.23,0,.71-1.87Z" transform="translate(-17.02 -30.11)"/><circle class="cls-7" cx="13.66" cy="14.63" r="5.13"/><path class="cls-8" d="M28.57,39c.66-.1.91-.24,1.36,0,.2.13.38.4.6.49a.94.94,0,0,0,.71-.06,3.17,3.17,0,0,1,1.39-.31,2.57,2.57,0,0,1,1.37.77V40a2.22,2.22,0,0,1-1.45.68,2.27,2.27,0,0,1-.73-.11,1.4,1.4,0,0,1-.69-.36,1.07,1.07,0,0,0-.69-.29,7.26,7.26,0,0,0-.79.26,1,1,0,0,1-.75-.25,1.06,1.06,0,0,1-.45-.86Z" transform="translate(-17.02 -30.11)"/><circle class="cls-9" cx="11.69" cy="13.27" r="1.02"/><circle class="cls-9" cx="15.75" cy="13.44" r="1.02"/><circle class="cls-10" cx="11.56" cy="13.8" r="0.51"/><circle class="cls-10" cx="15.61" cy="13.97" r="0.51"/><polygon class="cls-11" points="12.7 15.65 14.57 15.07 14.13 16.98 12.7 15.65"/></svg>