<svg id="Camada_1" data-name="Camada 1" xmlns="http://www.w3.org/2000/svg" viewBox="0 0 22.63 28.9"><defs><style>.cls-1{fill:none;stroke:#048abf;stroke-miterlimit:10;stroke-width:2px;}.cls-2{fill:#048abf;}</style></defs><rect class="cls-1" x="1" y="7.27" width="20.63" height="20.63" rx="4.02"/><path class="cls-2" d="M35.14,15.9a5.79,5.79,0,0,0-10.94,0,4.91,4.91,0,0,0-.38,2v5.81h2V17.85a2.79,2.79,0,0,1,.25-1.31A3.7,3.7,0,0,1,27,15.05a3.83,3.83,0,0,1,6.31,1.49,2.68,2.68,0,0,1,.26,1.31v5.81h2V17.85A4.91,4.91,0,0,0,35.14,15.9Zm-9.33,5.81h0" transform="translate(-18.35 -12)"/></svg>